<?xml version="1.0" encoding="UTF-8"?>
<svg width="600" height="500" viewBox="0 0 600 500" xmlns="http://www.w3.org/2000/svg">
  <!-- Phone Frame -->
  <rect x="200" y="50" width="200" height="400" rx="20" fill="#333" />
  <rect x="210" y="60" width="180" height="380" rx="15" fill="#fff" />
  
  <!-- Screen Content -->
  <rect x="220" y="70" width="160" height="360" fill="#f8f9fa" />
  
  <!-- App Header -->
  <rect x="220" y="70" width="160" height="50" fill="#2a8a7d" />
  <text x="300" y="100" text-anchor="middle" font-family="Arial" font-weight="bold" fill="white">BrandHash</text>
  
  <!-- App Content -->
  <!-- App 1 -->
  <rect x="230" y="130" width="140" height="70" rx="10" fill="white" stroke="#e1e1e1" />
  <circle cx="250" cy="150" r="10" fill="#FF6B6B"/>
  <text x="280" y="155" font-family="Arial" font-size="12" fill="#333">Instagram Post</text>
  <text x="270" y="175" font-family="Arial" font-size="10" fill="#666">+500 likes</text>
  
  <!-- App 2 -->
  <rect x="230" y="210" width="140" height="70" rx="10" fill="white" stroke="#e1e1e1" />
  <circle cx="250" cy="230" r="10" fill="#1DA1F2"/>
  <text x="280" y="235" font-family="Arial" font-size="12" fill="#333">Twitter Follow</text>
  <text x="270" y="255" font-family="Arial" font-size="10" fill="#666">+200 followers</text>
  
  <!-- App 3 -->
  <rect x="230" y="290" width="140" height="70" rx="10" fill="white" stroke="#e1e1e1" />
  <circle cx="250" cy="310" r="10" fill="#FF0000"/>
  <text x="280" y="315" font-family="Arial" font-size="12" fill="#333">YouTube Views</text>
  <text x="270" y="335" font-family="Arial" font-size="10" fill="#666">+1000 views</text>

  <!-- Floating Social Media Icons -->
  <!-- Instagram -->
  <g transform="translate(100,150)">
    <circle cx="0" cy="0" r="30" fill="#E4405F"/>
    <circle cx="0" cy="0" r="12" stroke="white" stroke-width="2" fill="none"/>
    <circle cx="0" cy="0" r="6" fill="white"/>
    <circle cx="9" cy="-9" r="2" fill="white"/>
  </g>

  <!-- Facebook -->
  <g transform="translate(450,200)">
    <circle cx="0" cy="0" r="30" fill="#1877F2"/>
    <path d="M8,30 v-20 h8 l1,-10 h-9 v-6 c0-3,2-5,5-5 h5 v-9 h-8 c-7,0-12,5-12,13 v7 h-8 v10 h8 v20" fill="white"/>
  </g>

  <!-- Twitter -->
  <g transform="translate(120,300)">
    <circle cx="0" cy="0" r="30" fill="#1DA1F2"/>
    <path d="M-15,-10 c0,0,3,0,5,0 c-3,-3-3-5-3-5 c0,0,5,0,7,3 c2,-2,4-3,7-3 c4,0,7,3,7,7 c5,0,9-3,9-3 c0,4-3,6-3,6 c0,11-9,20-20,20 c-6,0-10-2-10-2 c0,0,6,0,10-3 c-5-1-7-4-7-4" stroke="white" fill="none" stroke-width="2"/>
  </g>

  <!-- YouTube -->
  <g transform="translate(480,350)">
    <circle cx="0" cy="0" r="30" fill="#FF0000"/>
    <path d="M-10,-7 h20 v14 h-20 z" fill="white"/>
    <path d="M-2,-5 l8,5 l-8,5 z" fill="#FF0000"/>
  </g>

  <!-- TikTok -->
  <g transform="translate(100,400)">
    <circle cx="0" cy="0" r="30" fill="#000000"/>
    <path d="M5,-15 c8,0,15,0,15,10 v15 M0,10 v-25 M-10,10 c0,6,4,10,10,10 c6,0,10-4,10-10" stroke="white" fill="none" stroke-width="2.5"/>
  </g>

  <!-- Floating Like Icons -->
  <g transform="translate(450,100)">
    <circle cx="0" cy="0" r="20" fill="#E8E8E8"/>
    <path d="M-5,5 l5,-10 l5,10 z" fill="#FF6B6B"/>
    <text x="0" y="0" text-anchor="middle" dominant-baseline="middle" font-family="Arial" font-size="12">+1</text>
  </g>

  <g transform="translate(150,200)">
    <circle cx="0" cy="0" r="20" fill="#E8E8E8"/>
    <path d="M-10,0 h20" stroke="#1DA1F2" stroke-width="2"/>
    <text x="0" y="10" text-anchor="middle" dominant-baseline="middle" font-family="Arial" font-size="12">+1</text>
  </g>

  <!-- Animation Lines -->
  <path d="M220,70 q-100,100 -120,80" stroke="#E8E8E8" stroke-width="2" fill="none"/>
  <path d="M380,70 q100,100 120,130" stroke="#E8E8E8" stroke-width="2" fill="none"/>
  <path d="M220,430 q-50,-50 -120,-30" stroke="#E8E8E8" stroke-width="2" fill="none"/>
  <path d="M380,430 q50,-50 100,-80" stroke="#E8E8E8" stroke-width="2" fill="none"/>
</svg>
